<?xml version="1.0" encoding="UTF-8" standalone="no"?>
<svg
   width="230"
   height="231"
   viewBox="0 0 230 231"
   fill="none"
   version="1.1"
   id="svg25"
   sodipodi:docname="disk.svg"
   inkscape:version="1.2.2 (b0a8486541, 2022-12-01)"
   xmlns:inkscape="http://www.inkscape.org/namespaces/inkscape"
   xmlns:sodipodi="http://sodipodi.sourceforge.net/DTD/sodipodi-0.dtd"
   xmlns="http://www.w3.org/2000/svg"
   xmlns:svg="http://www.w3.org/2000/svg">
  <sodipodi:namedview
     id="namedview27"
     pagecolor="#ffffff"
     bordercolor="#000000"
     borderopacity="0.25"
     inkscape:showpageshadow="2"
     inkscape:pageopacity="0.0"
     inkscape:pagecheckerboard="0"
     inkscape:deskcolor="#d1d1d1"
     showgrid="false"
     inkscape:zoom="3.6017316"
     inkscape:cx="23.044471"
     inkscape:cy="134.9351"
     inkscape:window-width="1920"
     inkscape:window-height="1007"
     inkscape:window-x="0"
     inkscape:window-y="37"
     inkscape:window-maximized="1"
     inkscape:current-layer="svg25" />
  <rect
     height="87.981071"
     width="85.44104"
     y="123.11361"
     x="125.53065"
     fill="#404552"
     id="rect191"
     style="stroke-width:0.338679" />
  <path
     fill="#ffffff"
     d="m 168.25118,123.1136 a 42.720521,43.990535 0 0 0 -42.72053,43.99054 42.720521,43.990535 0 0 0 42.72053,43.99053 42.720521,43.990535 0 0 0 42.7205,-43.99053 42.720521,43.990535 0 0 0 -42.7205,-43.99054 z m 12.00178,6.61714 c 1.20153,0.0145 2.25619,0.17803 3.49107,0.38733 5.14316,0.87156 10.36974,4.74994 13.53708,10.40204 4.27538,7.62514 3.3175,16.81676 -1.56197,21.96159 -2.44976,2.58443 -3.18069,2.72534 -4.7827,3.83542 1.09137,-1.76994 1.42846,-2.45385 1.42513,-3.92134 0,-0.92105 -0.2837,-1.67371 -0.4439,-2.09986 -0.62078,-1.62559 -1.72217,-2.30607 -3.01045,-3.09138 -1.58199,-0.96469 -3.41098,-1.26094 -4.55908,-1.25853 -0.89113,0.002 -1.35171,0.004 -2.52319,0.31034 -5.56035,1.44481 -11.62799,-0.80386 -14.55835,-6.02912 l 0.003,6.9e-4 c -3.50443,-6.24665 -1.30165,-14.30928 4.92954,-18.01172 1.83565,-1.09047 3.98836,-2.13629 5.99423,-2.37136 0.5507,-0.0646 1.05466,-0.0993 1.53193,-0.11067 0.18022,-0.004 0.35378,-0.006 0.52732,-0.004 z m -32.88179,14.75333 c 1.10741,0.0145 2.19978,0.15774 3.25678,0.43544 3.39896,0.89354 3.88423,1.47678 5.62042,2.34867 -2.0359,-0.0874 -2.7805,-0.0451 -4.01339,0.69011 -0.77364,0.46156 -1.26626,1.08876 -1.54161,1.44447 -1.05867,1.36714 -1.08004,2.69064 -1.09671,4.23099 -0.0204,1.89297 0.64481,3.67081 1.22187,4.69289 0.44723,0.79734 0.67919,1.20287 1.52258,2.09644 3.99537,4.23409 5.13748,10.7708 2.20779,15.99812 v -0.004 c -3.50208,6.24803 -11.38436,8.31353 -17.61387,4.6087 -1.83498,-1.08946 -3.79045,-2.48822 -4.99063,-4.15849 -1.31933,-1.83522 -1.87203,-3.24774 -2.54487,-5.08639 -1.83979,-5.02455 -1.19017,-11.62313 1.97882,-17.27386 3.60754,-6.43361 10.01462,-10.1027 15.99282,-10.02365 z m 35.56485,30.18094 c 7.00216,0 12.68265,5.99714 12.68265,13.40336 -0.003,2.18235 -0.20026,4.62589 -1.00459,6.52986 -0.88446,2.09641 -1.7956,3.29241 -3.0038,4.81146 -3.30416,4.15504 -9.17823,6.87352 -15.51623,6.87352 -8.55077,0 -15.80324,-5.44727 -17.69029,-12.37234 -0.94786,-3.47799 -0.69955,-4.19972 -0.83438,-6.18617 0.94451,1.85929 1.35303,2.50196 2.58792,3.23399 0.77431,0.46052 1.54863,0.58425 1.98583,0.65299 1.67879,0.2612 2.80021,-0.38148 4.10518,-1.13757 1.60203,-0.92793 2.76348,-2.40918 3.33755,-3.43676 0.44389,-0.79732 0.67084,-1.2063 1.00126,-2.40573 1.56197,-5.68097 6.48818,-9.96661 12.3489,-9.96661 z"
     id="path193"
     style="stroke-width:0.338679" />
  <path
     fill-rule="evenodd"
     clip-rule="evenodd"
     d="M71.4445 19.7517C62.1623 19.8378 54.982 20.4539 49.0397 24.0193C45.0781 26.3962 42.1403 30.3051 40.5233 35.1562C38.9062 40.0072 38.3333 45.8397 38.3333 53.2934V177.877C38.3333 185.33 38.9062 191.163 40.5233 196.014C42.1403 200.865 45.0781 204.774 49.0397 207.151C56.9628 211.905 67.0834 211.418 81.4583 211.418H115V201.835H81.4583C67.0834 201.835 58.0371 201.349 53.9811 198.915C51.9531 197.698 50.6982 196.216 49.6199 192.982C48.5417 189.747 47.9166 184.798 47.9166 177.877V53.2934C47.9166 46.3721 48.5417 41.4232 49.6199 38.1884C50.6982 34.9536 51.9531 33.4718 53.9811 32.255C58.0371 29.8214 67.0834 29.335 81.4583 29.335H148.542C162.917 29.335 171.963 29.8214 176.019 32.255C178.047 33.4718 179.302 34.9536 180.38 38.1884C181.458 41.4232 182.083 46.3721 182.083 53.2934V115.585H191.667V53.2934C191.667 45.8397 191.094 40.0072 189.477 35.1562C187.86 30.3051 184.922 26.3962 180.96 24.0193C173.037 19.2654 162.917 19.7517 148.542 19.7517H81.4583C77.8646 19.7517 74.5385 19.723 71.4445 19.7517ZM114.289 86.835C108.24 86.924 102.26 88.1631 96.6569 90.4849C74.4395 99.6879 62.4848 123.934 68.7117 147.161C74.3911 168.34 93.5847 182.632 115 182.612V173.048C97.8733 173.057 82.5196 161.61 77.9769 144.672C72.9986 126.094 82.5581 106.703 100.325 99.3383C115.317 93.1674 132.57 97.0946 143.413 109.146L136.974 115.585H150.526L156.721 109.39L150.17 102.389C141.577 93.0031 129.604 87.4205 116.89 86.8725C116.025 86.8383 115.153 86.8223 114.289 86.835ZM115 115.585C109.917 115.585 105.042 117.604 101.447 121.199C97.8527 124.793 95.8333 129.668 95.8333 134.752C95.8333 139.835 97.8527 144.71 101.447 148.305C105.042 151.899 109.917 153.918 115 153.918V144.335C112.458 144.335 110.021 143.325 108.224 141.528C106.426 139.731 105.417 137.293 105.417 134.752C105.417 132.21 106.426 129.772 108.224 127.975C110.021 126.178 112.458 125.168 115 125.168V115.585Z"
     fill="url(#paint0_linear_624_12991)"
     id="path16" />
  <defs
     id="defs23">
    <linearGradient
       id="paint0_linear_624_12991"
       x1="115"
       y1="19.7377"
       x2="115"
       y2="211.432"
       gradientUnits="userSpaceOnUse">
      <stop
         stop-color="#414141"
         id="stop18" />
      <stop
         offset="1"
         stop-color="#838383"
         id="stop20" />
    </linearGradient>
  </defs>
</svg>
